<svg width="600" height="400" viewBox="0 0 600 400" fill="none" xmlns="http://www.w3.org/2000/svg">
<g clip-path="url(#clip0_989_226177)">
<g opacity="0.2" filter="url(#filter0_f_989_226177)">
<circle cx="300" cy="200" r="120" fill="#E32212"/>
</g>
<g opacity="0.4">
<path opacity="0.75" d="M355 88.44V75.48L366.34 81.96V94.92L355 88.44Z" fill="#E32212"/>
<path d="M377.68 88.44V75.48L366.34 81.96V94.92L377.68 88.44Z" fill="#E32212"/>
<path opacity="0.7" d="M366.34 69L377.68 75.48L366.34 81.96L355 75.48L366.34 69Z" fill="#BD0F06"/>
</g>
<g opacity="0.3">
<path opacity="0.75" d="M269 165.44V152.48L280.34 158.96V171.92L269 165.44Z" fill="#E32212"/>
<path d="M291.68 165.44V152.48L280.34 158.96V171.92L291.68 165.44Z" fill="#E32212"/>
<path opacity="0.7" d="M280.34 146L291.68 152.48L280.34 158.96L269 152.48L280.34 146Z" fill="#BD0F06"/>
</g>
<g opacity="0.4">
<path opacity="0.75" d="M505 217.44V204.48L516.34 210.96V223.92L505 217.44Z" fill="#E32212"/>
<path d="M527.68 217.44V204.48L516.34 210.96V223.92L527.68 217.44Z" fill="#E32212"/>
<path opacity="0.7" d="M516.34 198L527.68 204.48L516.34 210.96L505 204.48L516.34 198Z" fill="#BD0F06"/>
</g>
<g opacity="0.25">
<path opacity="0.75" d="M429 273.44V260.48L440.34 266.96V279.92L429 273.44Z" fill="#E32212"/>
<path d="M451.68 273.44V260.48L440.34 266.96V279.92L451.68 273.44Z" fill="#E32212"/>
<path opacity="0.7" d="M440.34 254L451.68 260.48L440.34 266.96L429 260.48L440.34 254Z" fill="#BD0F06"/>
</g>
<g opacity="0.5">
<path opacity="0.75" d="M409 201.2V184.4L423.7 192.8V209.6L409 201.2Z" fill="#E32212"/>
<path d="M438.399 201.2V184.4L423.699 192.8V209.6L438.399 201.2Z" fill="#E32212"/>
<path opacity="0.7" d="M423.7 176L438.4 184.4L423.7 192.8L409 184.4L423.7 176Z" fill="#BD0F06"/>
</g>
<g opacity="0.5">
<path opacity="0.75" d="M268 114.2V97.3999L282.7 105.8V122.6L268 114.2Z" fill="#E32212"/>
<path d="M297.399 114.2V97.3999L282.699 105.8V122.6L297.399 114.2Z" fill="#E32212"/>
<path opacity="0.7" d="M282.7 89L297.4 97.4L282.7 105.8L268 97.4L282.7 89Z" fill="#BD0F06"/>
</g>
<path opacity="0.75" d="M332 200V176L353 188V212L332 200Z" fill="#E32212"/>
<path d="M374 200V176L353 188V212L374 200Z" fill="#E32212"/>
<path opacity="0.7" d="M353 164L374 176L353 188L332 176L353 164Z" fill="#BD0F06"/>
<path opacity="0.75" d="M227 212V188L248 200V224L227 212Z" fill="#E32212"/>
<path d="M269 212V188L248 200V224L269 212Z" fill="#E32212"/>
<path opacity="0.7" d="M248 176L269 188L248 200L227 188L248 176Z" fill="#BD0F06"/>
<g opacity="0.7">
<path opacity="0.75" d="M311 144.4V122.8L329.9 133.6V155.2L311 144.4Z" fill="#E32212"/>
<path d="M348.8 144.4V122.8L329.9 133.6V155.2L348.8 144.4Z" fill="#E32212"/>
<path opacity="0.7" d="M329.9 112L348.8 122.8L329.9 133.6L311 122.8L329.9 112Z" fill="#BD0F06"/>
</g>
<g opacity="0.7">
<path opacity="0.75" d="M396 127.4V105.8L414.9 116.6V138.2L396 127.4Z" fill="#E32212"/>
<path d="M433.8 127.4V105.8L414.9 116.6V138.2L433.8 127.4Z" fill="#E32212"/>
<path opacity="0.7" d="M414.9 95L433.8 105.8L414.9 116.6L396 105.8L414.9 95Z" fill="#BD0F06"/>
</g>
<g opacity="0.6">
<path opacity="0.75" d="M482 143.2V126.4L496.7 134.8V151.6L482 143.2Z" fill="#E32212"/>
<path d="M511.399 143.2V126.4L496.699 134.8V151.6L511.399 143.2Z" fill="#E32212"/>
<path opacity="0.7" d="M496.7 118L511.4 126.4L496.7 134.8L482 126.4L496.7 118Z" fill="#BD0F06"/>
</g>
<g opacity="0.6">
<path opacity="0.75" d="M349 265.2V248.4L363.7 256.8V273.6L349 265.2Z" fill="#E32212"/>
<path d="M378.399 265.2V248.4L363.699 256.8V273.6L378.399 265.2Z" fill="#E32212"/>
<path opacity="0.7" d="M363.7 240L378.4 248.4L363.7 256.8L349 248.4L363.7 240Z" fill="#BD0F06"/>
</g>
<path opacity="0.6" d="M227 140V164M227 140L248 152M227 140L206 128M227 140V116M227 164L248 176M227 164V188M227 164L206 152M248 176V152M248 176V200M248 176L269 188M248 152L269 164M248 152V128M227 188L248 200M227 188L206 176M227 188V212M248 200L269 212M248 200V224M206 128V152M206 128V104M206 128L185 116M206 152V176M206 152L185 140M206 176V200M206 176L185 164M269 164V188M269 164L290 176M269 164V140M269 188L290 200M269 188V212M290 200V176M290 200V224M290 200L311 212M290 176V152M290 176L311 188M269 212L290 224M269 212V236M290 224L311 236M290 224V248M227 92V116M227 92L248 104M227 92L206 80M227 92L227 68M227 116L248 128M227 116L206 104M248 128V104M248 128L269 140M248 104L269 116M248 104L248 80M206 80V104M206 80L185 68M206 80L206 56M206 104L185 92M269 116V140M269 116L290 128M269 116L269 92M269 140L290 152M290 152V128M290 152L311 164M290 128L311 140M290 128L290 104M311 140V164M311 140L332 152M311 140L311 116M311 164L332 176M311 164V188M332 176V152M332 176V200M332 176L353 188M332 152L353 164M332 152L332 128M311 188L332 200M311 188V212M332 200L353 212M332 200V224M353 164V188M353 164L374 176M353 164V140M353 188L374 200M353 188V212M374 200V176M374 200V224M374 200L395 212M374 176L395 188M374 176V152M353 212L374 224M353 212V236M374 224V248M374 224L395 236M311 212L332 224M311 212V236M332 224V248M332 224L353 236M311 236L332 248M311 236V260M332 248L353 260M332 248V272M353 236L374 248M353 236V260M374 248V272M374 248L395 260M353 260L374 272M353 260V284M374 272V296M374 272L395 284M311 260L332 272M311 260V284M311 260L290 248M332 272V296M332 272L353 284M311 284L332 296M311 284L290 272M311 284L311 308M332 296L353 308M332 296L332 320M290 248V272M290 248L269 236M290 272L269 260M290 272L290 296M353 284L374 296M353 284V308M374 296V320M374 296L395 308M353 308L374 320M353 308V332M374 320V344M374 320L395 332M227 212L248 224M227 212V236M227 212L206 200M248 224V248M248 224L269 236M227 236L248 248M227 236L206 224M227 236L227 260M248 248L269 260M248 248L248 272M206 200V224M206 200L185 188M206 224L185 212M206 224L206 248M269 236V260M269 260L269 284M185 68V92M185 68V44L206 56M185 92V116M185 116V140M185 140V164M185 164V188M185 188V212M185 212V236L206 248M206 248L227 260M227 260L248 272M248 272L269 284M269 284L290 296M290 296L311 308M311 308L332 320M332 320L353 332M353 332L374 344M374 344L395 356V332M206 56L227 68M395 188V212M395 188V164L374 152M395 212V236M395 236V260M395 260V284M395 284V308M395 308V332M374 152L353 140M227 68L248 80M248 80L269 92M269 92L290 104M290 104L311 116M311 116L332 128M332 128L353 140" stroke="url(#paint0_radial_989_226177)" stroke-width="0.4" stroke-linejoin="round"/>
<path d="M185.4 51.001L395.4 171V350.999L185.4 231V51.001Z" fill="url(#paint1_linear_989_226177)" fill-opacity="0.25"/>
<path d="M222 286V262L201 274V298L222 286Z" fill="url(#paint2_linear_989_226177)" fill-opacity="0.6" stroke="url(#paint3_linear_989_226177)" stroke-width="0.375" stroke-linejoin="round"/>
<path d="M180 286V262L201 274V298L180 286Z" fill="url(#paint4_linear_989_226177)" fill-opacity="0.4" stroke="url(#paint5_linear_989_226177)" stroke-width="0.375" stroke-linejoin="round"/>
<path d="M201 250L180 262L201 274L222 262L201 250Z" fill="url(#paint6_linear_989_226177)" fill-opacity="0.25" stroke="url(#paint7_linear_989_226177)" stroke-width="0.375" stroke-linejoin="round"/>
<path d="M189 212V188L168 200V224L189 212Z" fill="url(#paint8_linear_989_226177)" fill-opacity="0.6" stroke="url(#paint9_linear_989_226177)" stroke-width="0.375" stroke-linejoin="round"/>
<path d="M147 212V188L168 200V224L147 212Z" fill="url(#paint10_linear_989_226177)" fill-opacity="0.4" stroke="url(#paint11_linear_989_226177)" stroke-width="0.375" stroke-linejoin="round"/>
<path d="M168 176L147 188L168 200L189 188L168 176Z" fill="url(#paint12_linear_989_226177)" fill-opacity="0.25" stroke="url(#paint13_linear_989_226177)" stroke-width="0.375" stroke-linejoin="round"/>
<g opacity="0.7">
<path d="M291.801 328.4V306.8L272.901 317.6V339.2L291.801 328.4Z" fill="url(#paint14_linear_989_226177)" fill-opacity="0.6" stroke="url(#paint15_linear_989_226177)" stroke-width="0.375" stroke-linejoin="round"/>
<path d="M254 328.4V306.8L272.9 317.6V339.2L254 328.4Z" fill="url(#paint16_linear_989_226177)" fill-opacity="0.4" stroke="url(#paint17_linear_989_226177)" stroke-width="0.375" stroke-linejoin="round"/>
<path d="M272.901 296L254.001 306.8L272.901 317.6L291.801 306.8L272.901 296Z" fill="url(#paint18_linear_989_226177)" fill-opacity="0.25" stroke="url(#paint19_linear_989_226177)" stroke-width="0.375" stroke-linejoin="round"/>
</g>
<g opacity="0.7">
<path d="M154.801 328.4V306.8L135.901 317.6V339.2L154.801 328.4Z" fill="url(#paint20_linear_989_226177)" fill-opacity="0.6" stroke="url(#paint21_linear_989_226177)" stroke-width="0.375" stroke-linejoin="round"/>
<path d="M117 328.4V306.8L135.9 317.6V339.2L117 328.4Z" fill="url(#paint22_linear_989_226177)" fill-opacity="0.4" stroke="url(#paint23_linear_989_226177)" stroke-width="0.375" stroke-linejoin="round"/>
<path d="M135.901 296L117.001 306.8L135.901 317.6L154.801 306.8L135.901 296Z" fill="url(#paint24_linear_989_226177)" fill-opacity="0.25" stroke="url(#paint25_linear_989_226177)" stroke-width="0.375" stroke-linejoin="round"/>
</g>
<path d="M311 260V236L290 248V272L311 260Z" fill="url(#paint26_linear_989_226177)" fill-opacity="0.8" stroke="url(#paint27_linear_989_226177)" stroke-width="0.375" stroke-linejoin="round"/>
<path d="M269 260V236L290 248V272L269 260Z" fill="url(#paint28_linear_989_226177)" fill-opacity="0.6" stroke="url(#paint29_linear_989_226177)" stroke-width="0.375" stroke-linejoin="round"/>
<path d="M290 224L269 236L290 248L311 236L290 224Z" fill="url(#paint30_linear_989_226177)" fill-opacity="0.4" stroke="url(#paint31_linear_989_226177)" stroke-width="0.375" stroke-linejoin="round"/>
<g opacity="0.6">
<path d="M114 248V224L93 236V260L114 248Z" fill="url(#paint32_linear_989_226177)" fill-opacity="0.8" stroke="url(#paint33_linear_989_226177)" stroke-width="0.375" stroke-linejoin="round"/>
<path d="M72 248V224L93 236V260L72 248Z" fill="url(#paint34_linear_989_226177)" fill-opacity="0.6" stroke="url(#paint35_linear_989_226177)" stroke-width="0.375" stroke-linejoin="round"/>
<path d="M93 212L72 224L93 236L114 224L93 212Z" fill="url(#paint36_linear_989_226177)" fill-opacity="0.4" stroke="url(#paint37_linear_989_226177)" stroke-width="0.375" stroke-linejoin="round"/>
</g>
<path d="M248 152V128L227 140V164L248 152Z" fill="url(#paint38_linear_989_226177)" fill-opacity="0.8" stroke="url(#paint39_linear_989_226177)" stroke-width="0.375" stroke-linejoin="round"/>
<path d="M206 152V128L227 140V164L206 152Z" fill="url(#paint40_linear_989_226177)" fill-opacity="0.6" stroke="url(#paint41_linear_989_226177)" stroke-width="0.375" stroke-linejoin="round"/>
<path d="M227 116L206 128L227 140L248 128L227 116Z" fill="url(#paint42_linear_989_226177)" fill-opacity="0.4" stroke="url(#paint43_linear_989_226177)" stroke-width="0.375" stroke-linejoin="round"/>
</g>
<defs>
<filter id="filter0_f_989_226177" x="-20" y="-120" width="640" height="640" filterUnits="userSpaceOnUse" color-interpolation-filters="sRGB">
<feFlood flood-opacity="0" result="BackgroundImageFix"/>
<feBlend mode="normal" in="SourceGraphic" in2="BackgroundImageFix" result="shape"/>
<feGaussianBlur stdDeviation="100" result="effect1_foregroundBlur_989_226177"/>
</filter>
<radialGradient id="paint0_radial_989_226177" cx="0" cy="0" r="1" gradientUnits="userSpaceOnUse" gradientTransform="translate(290 200) rotate(-150.668) scale(120.441 83.7257)">
<stop stop-color="white"/>
<stop offset="0.778022" stop-color="white"/>
<stop offset="0.994828" stop-color="white" stop-opacity="0"/>
</radialGradient>
<linearGradient id="paint1_linear_989_226177" x1="179.45" y1="121.455" x2="371.469" y2="327.811" gradientUnits="userSpaceOnUse">
<stop stop-color="#5D5D5D" stop-opacity="0"/>
<stop offset="0.234375" stop-color="#616161"/>
<stop offset="0.847247" stop-color="#474747"/>
<stop offset="1" stop-color="#474747" stop-opacity="0"/>
</linearGradient>
<linearGradient id="paint2_linear_989_226177" x1="202.219" y1="294.906" x2="226.127" y2="272.867" gradientUnits="userSpaceOnUse">
<stop stop-color="#999999"/>
<stop offset="1" stop-color="#474747"/>
</linearGradient>
<linearGradient id="paint3_linear_989_226177" x1="201" y1="275.781" x2="215.534" y2="292.791" gradientUnits="userSpaceOnUse">
<stop stop-color="#E32212" stop-opacity="0.2"/>
<stop offset="1" stop-color="#E32212"/>
</linearGradient>
<linearGradient id="paint4_linear_989_226177" x1="181.219" y1="294.906" x2="205.127" y2="272.867" gradientUnits="userSpaceOnUse">
<stop stop-color="#999999"/>
<stop offset="1" stop-color="#474747"/>
</linearGradient>
<linearGradient id="paint5_linear_989_226177" x1="180" y1="275.781" x2="194.534" y2="292.791" gradientUnits="userSpaceOnUse">
<stop stop-color="#E32212" stop-opacity="0.2"/>
<stop offset="1" stop-color="#E32212"/>
</linearGradient>
<linearGradient id="paint6_linear_989_226177" x1="182.437" y1="271.937" x2="192.666" y2="243.652" gradientUnits="userSpaceOnUse">
<stop stop-color="#999999"/>
<stop offset="1" stop-color="#474747"/>
</linearGradient>
<linearGradient id="paint7_linear_989_226177" x1="180" y1="259.187" x2="185.168" y2="277.334" gradientUnits="userSpaceOnUse">
<stop stop-color="#E32212" stop-opacity="0.2"/>
<stop offset="1" stop-color="#E32212"/>
</linearGradient>
<linearGradient id="paint8_linear_989_226177" x1="169.219" y1="220.906" x2="193.127" y2="198.867" gradientUnits="userSpaceOnUse">
<stop stop-color="#999999"/>
<stop offset="1" stop-color="#474747"/>
</linearGradient>
<linearGradient id="paint9_linear_989_226177" x1="168" y1="201.781" x2="182.534" y2="218.791" gradientUnits="userSpaceOnUse">
<stop stop-color="#E32212" stop-opacity="0.2"/>
<stop offset="1" stop-color="#E32212"/>
</linearGradient>
<linearGradient id="paint10_linear_989_226177" x1="148.219" y1="220.906" x2="172.127" y2="198.867" gradientUnits="userSpaceOnUse">
<stop stop-color="#999999"/>
<stop offset="1" stop-color="#474747"/>
</linearGradient>
<linearGradient id="paint11_linear_989_226177" x1="147" y1="201.781" x2="161.534" y2="218.791" gradientUnits="userSpaceOnUse">
<stop stop-color="#E32212" stop-opacity="0.2"/>
<stop offset="1" stop-color="#E32212"/>
</linearGradient>
<linearGradient id="paint12_linear_989_226177" x1="149.437" y1="197.937" x2="159.666" y2="169.652" gradientUnits="userSpaceOnUse">
<stop stop-color="#999999"/>
<stop offset="1" stop-color="#474747"/>
</linearGradient>
<linearGradient id="paint13_linear_989_226177" x1="147" y1="185.187" x2="152.168" y2="203.334" gradientUnits="userSpaceOnUse">
<stop stop-color="#E32212" stop-opacity="0.2"/>
<stop offset="1" stop-color="#E32212"/>
</linearGradient>
<linearGradient id="paint14_linear_989_226177" x1="273.998" y1="336.416" x2="295.515" y2="316.58" gradientUnits="userSpaceOnUse">
<stop stop-color="#999999"/>
<stop offset="1" stop-color="#474747"/>
</linearGradient>
<linearGradient id="paint15_linear_989_226177" x1="272.901" y1="319.203" x2="285.981" y2="334.512" gradientUnits="userSpaceOnUse">
<stop stop-color="#E32212" stop-opacity="0.2"/>
<stop offset="1" stop-color="#E32212"/>
</linearGradient>
<linearGradient id="paint16_linear_989_226177" x1="255.097" y1="336.416" x2="276.615" y2="316.58" gradientUnits="userSpaceOnUse">
<stop stop-color="#999999"/>
<stop offset="1" stop-color="#474747"/>
</linearGradient>
<linearGradient id="paint17_linear_989_226177" x1="254" y1="319.203" x2="267.081" y2="334.512" gradientUnits="userSpaceOnUse">
<stop stop-color="#E32212" stop-opacity="0.2"/>
<stop offset="1" stop-color="#E32212"/>
</linearGradient>
<linearGradient id="paint18_linear_989_226177" x1="256.195" y1="315.744" x2="265.4" y2="290.287" gradientUnits="userSpaceOnUse">
<stop stop-color="#999999"/>
<stop offset="1" stop-color="#474747"/>
</linearGradient>
<linearGradient id="paint19_linear_989_226177" x1="254.001" y1="304.269" x2="258.652" y2="320.601" gradientUnits="userSpaceOnUse">
<stop stop-color="#E32212" stop-opacity="0.2"/>
<stop offset="1" stop-color="#E32212"/>
</linearGradient>
<linearGradient id="paint20_linear_989_226177" x1="136.998" y1="336.416" x2="158.515" y2="316.58" gradientUnits="userSpaceOnUse">
<stop stop-color="#999999"/>
<stop offset="1" stop-color="#474747"/>
</linearGradient>
<linearGradient id="paint21_linear_989_226177" x1="135.901" y1="319.203" x2="148.981" y2="334.512" gradientUnits="userSpaceOnUse">
<stop stop-color="#E32212" stop-opacity="0.2"/>
<stop offset="1" stop-color="#E32212"/>
</linearGradient>
<linearGradient id="paint22_linear_989_226177" x1="118.097" y1="336.416" x2="139.615" y2="316.58" gradientUnits="userSpaceOnUse">
<stop stop-color="#999999"/>
<stop offset="1" stop-color="#474747"/>
</linearGradient>
<linearGradient id="paint23_linear_989_226177" x1="117" y1="319.203" x2="130.081" y2="334.512" gradientUnits="userSpaceOnUse">
<stop stop-color="#E32212" stop-opacity="0.2"/>
<stop offset="1" stop-color="#E32212"/>
</linearGradient>
<linearGradient id="paint24_linear_989_226177" x1="119.195" y1="315.744" x2="128.4" y2="290.287" gradientUnits="userSpaceOnUse">
<stop stop-color="#999999"/>
<stop offset="1" stop-color="#474747"/>
</linearGradient>
<linearGradient id="paint25_linear_989_226177" x1="117.001" y1="304.269" x2="121.652" y2="320.601" gradientUnits="userSpaceOnUse">
<stop stop-color="#E32212" stop-opacity="0.2"/>
<stop offset="1" stop-color="#E32212"/>
</linearGradient>
<linearGradient id="paint26_linear_989_226177" x1="291.219" y1="268.906" x2="315.127" y2="246.867" gradientUnits="userSpaceOnUse">
<stop stop-color="#999999"/>
<stop offset="1" stop-color="#474747"/>
</linearGradient>
<linearGradient id="paint27_linear_989_226177" x1="290" y1="249.781" x2="304.534" y2="266.791" gradientUnits="userSpaceOnUse">
<stop stop-color="#E32212" stop-opacity="0.2"/>
<stop offset="1" stop-color="#E32212"/>
</linearGradient>
<linearGradient id="paint28_linear_989_226177" x1="270.219" y1="268.906" x2="294.127" y2="246.867" gradientUnits="userSpaceOnUse">
<stop stop-color="#999999"/>
<stop offset="1" stop-color="#474747"/>
</linearGradient>
<linearGradient id="paint29_linear_989_226177" x1="269" y1="249.781" x2="283.534" y2="266.791" gradientUnits="userSpaceOnUse">
<stop stop-color="#E32212" stop-opacity="0.2"/>
<stop offset="1" stop-color="#E32212"/>
</linearGradient>
<linearGradient id="paint30_linear_989_226177" x1="271.437" y1="245.937" x2="281.666" y2="217.652" gradientUnits="userSpaceOnUse">
<stop stop-color="#999999"/>
<stop offset="1" stop-color="#474747"/>
</linearGradient>
<linearGradient id="paint31_linear_989_226177" x1="269" y1="233.187" x2="274.168" y2="251.334" gradientUnits="userSpaceOnUse">
<stop stop-color="#E32212" stop-opacity="0.2"/>
<stop offset="1" stop-color="#E32212"/>
</linearGradient>
<linearGradient id="paint32_linear_989_226177" x1="94.2187" y1="256.906" x2="118.127" y2="234.867" gradientUnits="userSpaceOnUse">
<stop stop-color="#999999"/>
<stop offset="1" stop-color="#474747"/>
</linearGradient>
<linearGradient id="paint33_linear_989_226177" x1="93" y1="237.781" x2="107.534" y2="254.791" gradientUnits="userSpaceOnUse">
<stop stop-color="#E32212" stop-opacity="0.2"/>
<stop offset="1" stop-color="#E32212"/>
</linearGradient>
<linearGradient id="paint34_linear_989_226177" x1="73.2187" y1="256.906" x2="97.1273" y2="234.867" gradientUnits="userSpaceOnUse">
<stop stop-color="#999999"/>
<stop offset="1" stop-color="#474747"/>
</linearGradient>
<linearGradient id="paint35_linear_989_226177" x1="72" y1="237.781" x2="86.5338" y2="254.791" gradientUnits="userSpaceOnUse">
<stop stop-color="#E32212" stop-opacity="0.2"/>
<stop offset="1" stop-color="#E32212"/>
</linearGradient>
<linearGradient id="paint36_linear_989_226177" x1="74.4375" y1="233.937" x2="84.6656" y2="205.652" gradientUnits="userSpaceOnUse">
<stop stop-color="#999999"/>
<stop offset="1" stop-color="#474747"/>
</linearGradient>
<linearGradient id="paint37_linear_989_226177" x1="72" y1="221.187" x2="77.1683" y2="239.334" gradientUnits="userSpaceOnUse">
<stop stop-color="#E32212" stop-opacity="0.2"/>
<stop offset="1" stop-color="#E32212"/>
</linearGradient>
<linearGradient id="paint38_linear_989_226177" x1="228.219" y1="160.906" x2="252.127" y2="138.867" gradientUnits="userSpaceOnUse">
<stop stop-color="#999999"/>
<stop offset="1" stop-color="#474747"/>
</linearGradient>
<linearGradient id="paint39_linear_989_226177" x1="227" y1="141.781" x2="241.534" y2="158.791" gradientUnits="userSpaceOnUse">
<stop stop-color="#E32212" stop-opacity="0.2"/>
<stop offset="1" stop-color="#E32212"/>
</linearGradient>
<linearGradient id="paint40_linear_989_226177" x1="207.219" y1="160.906" x2="231.127" y2="138.867" gradientUnits="userSpaceOnUse">
<stop stop-color="#999999"/>
<stop offset="1" stop-color="#474747"/>
</linearGradient>
<linearGradient id="paint41_linear_989_226177" x1="206" y1="141.781" x2="220.534" y2="158.791" gradientUnits="userSpaceOnUse">
<stop stop-color="#E32212" stop-opacity="0.2"/>
<stop offset="1" stop-color="#E32212"/>
</linearGradient>
<linearGradient id="paint42_linear_989_226177" x1="208.437" y1="137.937" x2="218.666" y2="109.652" gradientUnits="userSpaceOnUse">
<stop stop-color="#999999"/>
<stop offset="1" stop-color="#474747"/>
</linearGradient>
<linearGradient id="paint43_linear_989_226177" x1="206" y1="125.187" x2="211.168" y2="143.334" gradientUnits="userSpaceOnUse">
<stop stop-color="#E32212" stop-opacity="0.2"/>
<stop offset="1" stop-color="#E32212"/>
</linearGradient>
<clipPath id="clip0_989_226177">
<rect width="600" height="400" fill="white"/>
</clipPath>
</defs>
</svg>
