<svg width="600" height="400" viewBox="0 0 600 400" fill="none" xmlns="http://www.w3.org/2000/svg">
<g clip-path="url(#clip0_989_226260)">
<path d="M369 84L89 244L285 356L565 196L369 84Z" fill="url(#paint0_radial_989_226260)" fill-opacity="0.2"/>
<path opacity="0.3" d="M509 164.5L537 148.5M509 164.5L537 180.5M509 164.5L481 148.5M509 164.5L481 180.5M537 148.5L565 164.5L537 180.5M537 148.5L509 132.5M537 180.5L509 196.5M481 148.5L509 132.5M481 148.5L453 164.5M481 148.5L453 132.5M509 132.5L481 116.5M481 180.5L509 196.5M481 180.5L453 164.5M481 180.5L453 196.5M509 196.5L481 212.5M453 164.5L425 148.5M453 164.5L425 180.5M453 132.5L481 116.5M453 132.5L425 116.5M453 132.5L425 148.5M481 116.5L453 100.5M425 116.5L453 100.5M425 116.5L397 132.5M425 116.5L397 100.5M453 100.5L425 84.5M425 148.5L397 164.5M425 148.5L397 132.5M397 164.5L425 180.5M397 164.5L369 148.5M397 164.5L369 180.5M425 180.5L453 196.5M425 180.5L397 196.5M397 132.5L369 116.5M397 132.5L369 148.5M397 100.5L425 84.5M397 100.5L369 84.4995M397 100.5L369 116.5M425 84.5L397 68.5M369 84.4995L397 68.5M369 84.4995L341 100.5M369 84.4995L341 68.4995M397 68.5L369 52.5L341 68.4995M369 116.5L341 100.5M369 116.5L341 132.5M341 100.5L313 84.4995M341 100.5L313 116.5M341 68.4995L313 84.4995M313 84.4995L285 100.5M453 196.5L481 212.5M453 196.5L425 212.5M481 212.5L453 228.5M369 148.5L341 132.5M369 148.5L341 164.5M341 132.5L313 116.5M341 132.5L313 148.5M313 116.5L285 100.5M313 116.5L285 132.5M285 100.5L257 116.5M369 180.5L397 196.5M369 180.5L341 164.5M369 180.5L341 196.5M397 196.5L425 212.5M397 196.5L369 212.5M425 212.5L453 228.5M425 212.5L397 228.5M453 228.5L425 244.5M341 164.5L313 148.5M341 164.5L313 180.5M313 148.5L285 132.5M313 148.5L285 164.5M285 132.5L257 116.5M285 132.5L257 148.5M257 116.5L229 132.5M341 196.5L369 212.5M341 196.5L313 180.5M341 196.5L313 212.5M369 212.5L397 228.5M369 212.5L341 228.5M397 228.5L425 244.5M397 228.5L369 244.5M425 244.5L397 260.5M313 180.5L285 164.5M313 180.5L285 196.5M285 164.5L257 148.5M285 164.5L257 180.5M257 148.5L229 132.5M257 148.5L229 164.5M229 132.5L201 148.5M369 244.5L397 260.5M369 244.5L341 228.5M369 244.5L341 260.5M397 260.5L369 276.5M341 228.5L313 244.5M341 228.5L313 212.5M341 260.5L369 276.5M341 260.5L313 244.5M341 260.5L313 276.5M369 276.5L341 292.5M313 244.5L285 228.5M313 244.5L285 260.5M313 212.5L285 196.5M313 212.5L285 228.5M285 196.5L257 212.5M285 196.5L257 180.5M285 228.5L257 244.5M285 228.5L257 212.5M257 244.5L285 260.5M257 244.5L229 228.5M257 244.5L229 260.5M285 260.5L313 276.5M285 260.5L257 276.5M257 212.5L229 196.5M257 212.5L229 228.5M257 180.5L229 164.5M257 180.5L229 196.5M229 164.5L201 180.5M229 164.5L201 148.5M229 196.5L201 180.5M229 196.5L201 212.5M201 180.5L173 164.5M201 180.5L173 196.5M201 148.5L173 164.5M173 164.5L145 180.5M313 276.5L341 292.5M313 276.5L285 292.5M341 292.5L313 308.5M229 228.5L201 212.5M229 228.5L201 244.5M201 212.5L173 196.5M201 212.5L173 228.5M173 196.5L145 180.5M173 196.5L145 212.5M145 180.5L117 196.5M229 260.5L257 276.5M229 260.5L201 244.5M229 260.5L201 276.5M257 276.5L285 292.5M257 276.5L229 292.5M285 292.5L313 308.5M285 292.5L257 308.5M313 308.5L285 324.5L257 308.5M201 244.5L173 228.5M201 244.5L173 260.5M173 228.5L145 212.5M173 228.5L145 244.5M145 212.5L117 196.5M145 212.5L117 228.5M117 196.5L89 212.5L117 228.5M201 276.5L229 292.5M201 276.5L173 260.5M229 292.5L257 308.5M173 260.5L145 244.5M145 244.5L117 228.5" stroke="url(#paint1_radial_989_226260)" stroke-width="0.4" stroke-linejoin="round"/>
<path d="M313 116.5L285 132.5L313 148.5M313 148.5L341 164.5L369 148.5L397 132.5L425 148.5L453 164.5L425 180.5L397 196.5L369 212.5L341 228.5L313 244.5L285 228.5L257 212.5L229 196.5M313 148.5L285 164.5L257 180.5L229 196.5M229 196.5L201 212.5L173 228.5L145 212.5L117 196.5" stroke="url(#paint2_radial_989_226260)" stroke-width="1.5" stroke-linecap="round" stroke-linejoin="round"/>
<path d="M71.7518 207.934C71.596 207.845 71.4998 207.679 71.4998 207.5C71.4998 207.321 71.596 207.155 71.7518 207.066L127.752 175.066C127.906 174.978 128.094 174.978 128.248 175.066L149.248 187.066C149.404 187.155 149.5 187.321 149.5 187.5C149.5 187.679 149.404 187.845 149.248 187.934L93.2479 219.934C93.0942 220.022 92.9055 220.022 92.7518 219.934L71.7518 207.934Z" fill="url(#paint3_linear_989_226260)"/>
<path d="M71.7518 207.934C71.596 207.845 71.4998 207.679 71.4998 207.5C71.4998 207.321 71.596 207.155 71.7518 207.066L127.752 175.066C127.906 174.978 128.094 174.978 128.248 175.066L149.248 187.066C149.404 187.155 149.5 187.321 149.5 187.5C149.5 187.679 149.404 187.845 149.248 187.934L93.2479 219.934C93.0942 220.022 92.9055 220.022 92.7518 219.934L71.7518 207.934Z" fill="#101010" fill-opacity="0.3"/>
<path d="M71.7518 207.934C71.596 207.845 71.4998 207.679 71.4998 207.5C71.4998 207.321 71.596 207.155 71.7518 207.066L127.752 175.066C127.906 174.978 128.094 174.978 128.248 175.066L149.248 187.066C149.404 187.155 149.5 187.321 149.5 187.5C149.5 187.679 149.404 187.845 149.248 187.934L93.2479 219.934C93.0942 220.022 92.9055 220.022 92.7518 219.934L71.7518 207.934Z" stroke="url(#paint4_linear_989_226260)" stroke-linejoin="round"/>
<path d="M211.752 192.934C211.596 192.845 211.5 192.679 211.5 192.5C211.5 192.321 211.596 192.155 211.752 192.066L267.752 160.066C267.906 159.978 268.094 159.978 268.248 160.066L289.248 172.066C289.404 172.155 289.5 172.321 289.5 172.5C289.5 172.679 289.404 172.845 289.248 172.934L233.248 204.934C233.094 205.022 232.906 205.022 232.752 204.934L211.752 192.934Z" fill="url(#paint5_linear_989_226260)"/>
<path d="M211.752 192.934C211.596 192.845 211.5 192.679 211.5 192.5C211.5 192.321 211.596 192.155 211.752 192.066L267.752 160.066C267.906 159.978 268.094 159.978 268.248 160.066L289.248 172.066C289.404 172.155 289.5 172.321 289.5 172.5C289.5 172.679 289.404 172.845 289.248 172.934L233.248 204.934C233.094 205.022 232.906 205.022 232.752 204.934L211.752 192.934Z" fill="#101010" fill-opacity="0.3"/>
<path d="M211.752 192.934C211.596 192.845 211.5 192.679 211.5 192.5C211.5 192.321 211.596 192.155 211.752 192.066L267.752 160.066C267.906 159.978 268.094 159.978 268.248 160.066L289.248 172.066C289.404 172.155 289.5 172.321 289.5 172.5C289.5 172.679 289.404 172.845 289.248 172.934L233.248 204.934C233.094 205.022 232.906 205.022 232.752 204.934L211.752 192.934Z" stroke="url(#paint6_linear_989_226260)" stroke-linejoin="round"/>
<path d="M324.752 222.934C324.596 222.845 324.5 222.679 324.5 222.5C324.5 222.321 324.596 222.155 324.752 222.066L380.752 190.066C380.906 189.978 381.094 189.978 381.248 190.066L402.248 202.066C402.404 202.155 402.5 202.321 402.5 202.5C402.5 202.679 402.404 202.845 402.248 202.934L346.248 234.934C346.094 235.022 345.906 235.022 345.752 234.934L324.752 222.934Z" fill="url(#paint7_linear_989_226260)" stroke="url(#paint8_linear_989_226260)" stroke-linejoin="round"/>
<path d="M432.752 161.934C432.596 161.845 432.5 161.679 432.5 161.5C432.5 161.321 432.596 161.155 432.752 161.066L488.752 129.066C488.906 128.978 489.094 128.978 489.248 129.066L510.248 141.066C510.404 141.155 510.5 141.321 510.5 141.5C510.5 141.679 510.404 141.845 510.248 141.934L454.248 173.934C454.094 174.022 453.906 174.022 453.752 173.934L432.752 161.934Z" fill="url(#paint9_linear_989_226260)" stroke="url(#paint10_linear_989_226260)" stroke-linejoin="round"/>
<path d="M288.752 116.934C288.596 116.845 288.5 116.679 288.5 116.5C288.5 116.321 288.596 116.155 288.752 116.066L344.752 84.0659C344.906 83.978 345.094 83.978 345.248 84.0659L366.248 96.0659C366.404 96.1549 366.5 96.3206 366.5 96.5C366.5 96.6794 366.404 96.8451 366.248 96.9341L310.248 128.934C310.094 129.022 309.906 129.022 309.752 128.934L288.752 116.934Z" fill="url(#paint11_linear_989_226260)"/>
<path d="M288.752 116.934C288.596 116.845 288.5 116.679 288.5 116.5C288.5 116.321 288.596 116.155 288.752 116.066L344.752 84.0659C344.906 83.978 345.094 83.978 345.248 84.0659L366.248 96.0659C366.404 96.1549 366.5 96.3206 366.5 96.5C366.5 96.6794 366.404 96.8451 366.248 96.9341L310.248 128.934C310.094 129.022 309.906 129.022 309.752 128.934L288.752 116.934Z" fill="#101010" fill-opacity="0.3"/>
<path d="M288.752 116.934C288.596 116.845 288.5 116.679 288.5 116.5C288.5 116.321 288.596 116.155 288.752 116.066L344.752 84.0659C344.906 83.978 345.094 83.978 345.248 84.0659L366.248 96.0659C366.404 96.1549 366.5 96.3206 366.5 96.5C366.5 96.6794 366.404 96.8451 366.248 96.9341L310.248 128.934C310.094 129.022 309.906 129.022 309.752 128.934L288.752 116.934Z" stroke="url(#paint12_linear_989_226260)" stroke-linejoin="round"/>
<path d="M344.752 148.934C344.596 148.845 344.5 148.679 344.5 148.5C344.5 148.321 344.596 148.155 344.752 148.066L400.752 116.066C400.906 115.978 401.094 115.978 401.248 116.066L422.248 128.066C422.404 128.155 422.5 128.321 422.5 128.5C422.5 128.679 422.404 128.845 422.248 128.934L366.248 160.934C366.094 161.022 365.906 161.022 365.752 160.934L344.752 148.934Z" fill="url(#paint13_linear_989_226260)" stroke="url(#paint14_linear_989_226260)" stroke-linejoin="round"/>
<circle cx="2.98715" cy="2.98715" r="2.48715" transform="matrix(0.866025 -0.5 0.866025 0.5 218 199.487)" fill="#BD0F06" fill-opacity="0.8" stroke="#E32212"/>
<circle cx="2.98715" cy="2.98715" r="2.48715" transform="matrix(0.866025 -0.5 0.866025 0.5 233.5 202)" fill="#BD0F06" fill-opacity="0.8" stroke="#E32212"/>
<circle cx="2.98715" cy="2.98715" r="2.48715" transform="matrix(0.866025 -0.5 0.866025 0.5 275 167.487)" fill="#BD0F06" fill-opacity="0.8" stroke="#E32212"/>
<circle cx="2.98715" cy="2.98715" r="2.48715" transform="matrix(0.866025 -0.5 0.866025 0.5 295 123.487)" fill="#BD0F06" fill-opacity="0.8" stroke="#E32212"/>
<circle cx="2.98715" cy="2.98715" r="2.48715" transform="matrix(0.866025 -0.5 0.866025 0.5 351 155.487)" fill="#BD0F06" fill-opacity="0.8" stroke="#E32212"/>
<circle opacity="0.8" cx="2.98715" cy="2.98715" r="2.48715" transform="matrix(0.866025 -0.5 0.866025 0.5 440 168.487)" fill="#BD0F06" fill-opacity="0.8" stroke="#E32212"/>
<circle opacity="0.6" cx="2.98715" cy="2.98715" r="2.48715" transform="matrix(0.866025 -0.5 0.866025 0.5 435 157.487)" fill="#BD0F06" fill-opacity="0.8" stroke="#E32212"/>
<circle opacity="0.6" cx="2.98715" cy="2.98715" r="2.48715" transform="matrix(0.866025 -0.5 0.866025 0.5 402 137.487)" fill="#BD0F06" fill-opacity="0.8" stroke="#E32212"/>
<circle cx="2.98715" cy="2.98715" r="2.48715" transform="matrix(0.866025 -0.5 0.866025 0.5 332 230.487)" fill="#BD0F06" fill-opacity="0.8" stroke="#E32212"/>
<circle opacity="0.7" cx="2.98715" cy="2.98715" r="2.48715" transform="matrix(0.866025 -0.5 0.866025 0.5 388 198.487)" fill="#BD0F06" fill-opacity="0.8" stroke="#E32212"/>
<circle cx="2.98715" cy="2.98715" r="2.48715" transform="matrix(0.866025 -0.5 0.866025 0.5 121 201.487)" fill="#BD0F06" fill-opacity="0.8" stroke="#E32212"/>
<g opacity="0.4">
<path opacity="0.75" d="M447 161.46V152.82L454.56 157.14V165.78L447 161.46Z" fill="#E32212"/>
<path d="M462.121 161.46V152.82L454.561 157.14V165.78L462.121 161.46Z" fill="#E32212"/>
<path opacity="0.7" d="M454.56 148.5L462.12 152.82L454.56 157.14L447 152.82L454.56 148.5Z" fill="#BD0F06"/>
</g>
<g opacity="0.4">
<path opacity="0.75" d="M338 222.96V214.32L345.56 218.64V227.28L338 222.96Z" fill="#E32212"/>
<path d="M353.121 222.96V214.32L345.561 218.64V227.28L353.121 222.96Z" fill="#E32212"/>
<path opacity="0.7" d="M345.56 210L353.12 214.32L345.56 218.64L338 214.32L345.56 210Z" fill="#BD0F06"/>
</g>
<g opacity="0.4">
<path opacity="0.75" d="M86.002 207.46V198.82L93.562 203.14V211.78L86.002 207.46Z" fill="#E32212"/>
<path d="M101.123 207.46V198.82L93.5625 203.14V211.78L101.123 207.46Z" fill="#E32212"/>
<path opacity="0.7" d="M93.562 194.5L101.122 198.82L93.562 203.14L86.002 198.82L93.562 194.5Z" fill="#BD0F06"/>
</g>
<g opacity="0.9">
<path opacity="0.75" d="M336 97.9599V89.3199L343.56 93.6399V102.28L336 97.9599Z" fill="#2B2B2B"/>
<path d="M351.121 97.9599V89.3199L343.561 93.6399V102.28L351.121 97.9599Z" fill="#2B2B2B"/>
<path opacity="0.7" d="M343.56 85L351.12 89.32L343.56 93.64L336 89.32L343.56 85Z" fill="#2B2B2B"/>
</g>
<g opacity="0.9">
<path opacity="0.75" d="M360 147.46V138.82L367.56 143.14V151.78L360 147.46Z" fill="#E32212"/>
<path d="M375.121 147.46V138.82L367.561 143.14V151.78L375.121 147.46Z" fill="#E32212"/>
<path opacity="0.7" d="M367.56 134.5L375.12 138.82L367.56 143.14L360 138.82L367.56 134.5Z" fill="#BD0F06"/>
</g>
<g opacity="0.9">
<path opacity="0.75" d="M227 191.46V182.82L234.56 187.14V195.78L227 191.46Z" fill="#E32212"/>
<path d="M242.121 191.46V182.82L234.561 187.14V195.78L242.121 191.46Z" fill="#E32212"/>
<path opacity="0.7" d="M234.56 178.5L242.12 182.82L234.56 187.14L227 182.82L234.56 178.5Z" fill="#BD0F06"/>
</g>
<g opacity="0.15" filter="url(#filter0_f_989_226260)">
<circle cx="245" cy="200" r="120" fill="#E32212"/>
</g>
</g>
<defs>
<filter id="filter0_f_989_226260" x="-75" y="-120" width="640" height="640" filterUnits="userSpaceOnUse" color-interpolation-filters="sRGB">
<feFlood flood-opacity="0" result="BackgroundImageFix"/>
<feBlend mode="normal" in="SourceGraphic" in2="BackgroundImageFix" result="shape"/>
<feGaussianBlur stdDeviation="100" result="effect1_foregroundBlur_989_226260"/>
</filter>
<radialGradient id="paint0_radial_989_226260" cx="0" cy="0" r="1" gradientUnits="userSpaceOnUse" gradientTransform="translate(327 220) rotate(-7.82575) scale(212.984 119.441)">
<stop stop-color="#616161"/>
<stop offset="0.622715" stop-color="#474747"/>
<stop offset="1" stop-color="#474747" stop-opacity="0"/>
</radialGradient>
<radialGradient id="paint1_radial_989_226260" cx="0" cy="0" r="1" gradientUnits="userSpaceOnUse" gradientTransform="translate(327 188.5) rotate(164.096) scale(189.764 98.2799)">
<stop stop-color="white"/>
<stop offset="0.750594" stop-color="white"/>
<stop offset="1" stop-color="white" stop-opacity="0"/>
</radialGradient>
<radialGradient id="paint2_radial_989_226260" cx="0" cy="0" r="1" gradientUnits="userSpaceOnUse" gradientTransform="translate(265.5 167) rotate(174.906) scale(129.512 59.1665)">
<stop offset="0.712007" stop-color="#E32212"/>
<stop offset="1" stop-color="#E32212" stop-opacity="0.5"/>
</radialGradient>
<linearGradient id="paint3_linear_989_226260" x1="83.5" y1="211" x2="104.862" y2="167.284" gradientUnits="userSpaceOnUse">
<stop stop-color="#2B2B2B"/>
<stop offset="1" stop-color="#E32212" stop-opacity="0.5"/>
</linearGradient>
<linearGradient id="paint4_linear_989_226260" x1="71.9999" y1="204.688" x2="77.1683" y2="222.834" gradientUnits="userSpaceOnUse">
<stop stop-color="#E32212" stop-opacity="0.2"/>
<stop offset="1" stop-color="#E32212"/>
</linearGradient>
<linearGradient id="paint5_linear_989_226260" x1="223.5" y1="196" x2="244.862" y2="152.284" gradientUnits="userSpaceOnUse">
<stop stop-color="#2B2B2B"/>
<stop offset="1" stop-color="#E32212" stop-opacity="0.5"/>
</linearGradient>
<linearGradient id="paint6_linear_989_226260" x1="212" y1="189.688" x2="217.168" y2="207.834" gradientUnits="userSpaceOnUse">
<stop stop-color="#E32212" stop-opacity="0.2"/>
<stop offset="1" stop-color="#E32212"/>
</linearGradient>
<linearGradient id="paint7_linear_989_226260" x1="336.5" y1="226" x2="357.862" y2="182.284" gradientUnits="userSpaceOnUse">
<stop stop-color="#2B2B2B"/>
<stop offset="1" stop-color="#474747" stop-opacity="0.8"/>
</linearGradient>
<linearGradient id="paint8_linear_989_226260" x1="325" y1="219.688" x2="330.168" y2="237.834" gradientUnits="userSpaceOnUse">
<stop stop-color="#E32212" stop-opacity="0.2"/>
<stop offset="1" stop-color="#E32212"/>
</linearGradient>
<linearGradient id="paint9_linear_989_226260" x1="444.5" y1="165" x2="465.862" y2="121.284" gradientUnits="userSpaceOnUse">
<stop stop-color="#2B2B2B"/>
<stop offset="1" stop-color="#474747" stop-opacity="0.8"/>
</linearGradient>
<linearGradient id="paint10_linear_989_226260" x1="433" y1="158.688" x2="438.168" y2="176.834" gradientUnits="userSpaceOnUse">
<stop stop-color="#E32212" stop-opacity="0.2"/>
<stop offset="1" stop-color="#E32212"/>
</linearGradient>
<linearGradient id="paint11_linear_989_226260" x1="300.5" y1="120" x2="321.862" y2="76.2842" gradientUnits="userSpaceOnUse">
<stop stop-color="#2B2B2B"/>
<stop offset="1" stop-color="#E32212" stop-opacity="0.5"/>
</linearGradient>
<linearGradient id="paint12_linear_989_226260" x1="289" y1="113.688" x2="294.168" y2="131.834" gradientUnits="userSpaceOnUse">
<stop stop-color="#E32212" stop-opacity="0.2"/>
<stop offset="1" stop-color="#E32212"/>
</linearGradient>
<linearGradient id="paint13_linear_989_226260" x1="356.5" y1="152" x2="377.862" y2="108.284" gradientUnits="userSpaceOnUse">
<stop stop-color="#2B2B2B"/>
<stop offset="1" stop-color="#474747" stop-opacity="0.8"/>
</linearGradient>
<linearGradient id="paint14_linear_989_226260" x1="345" y1="145.688" x2="350.168" y2="163.834" gradientUnits="userSpaceOnUse">
<stop stop-color="#E32212" stop-opacity="0.2"/>
<stop offset="1" stop-color="#E32212"/>
</linearGradient>
<clipPath id="clip0_989_226260">
<rect width="600" height="400" fill="white"/>
</clipPath>
</defs>
</svg>
