<svg width="600" height="400" viewBox="0 0 600 400" fill="none" xmlns="http://www.w3.org/2000/svg">
<g clip-path="url(#clip0_989_226107)">
<g opacity="0.2" filter="url(#filter0_f_989_226107)">
<circle cx="300" cy="200" r="120" fill="#E32212"/>
</g>
<path d="M192 267.426L164 251.426M192 267.426L164 283.426M192 267.426L220 251.426M192 267.426L220 283.426M164 251.426L136 267.426L164 283.426M164 251.426L192 235.426M164 283.426L192 299.426M220 251.426L192 235.426M220 251.426L248 267.426M220 251.426L248 235.426M192 235.426L220 219.426M220 283.426L192 299.426M220 283.426L248 267.426M220 283.426L248 299.426M192 299.426L220 315.426M248 267.426L276 251.426M248 267.426L276 283.426M248 235.426L220 219.426M248 235.426L276 219.426M248 235.426L276 251.426M220 219.426L248 203.426M276 219.426L248 203.426M276 219.426L304 235.426M276 219.426L304 203.426M248 203.426L276 187.426M276 251.426L304 267.426M276 251.426L304 235.426M304 267.426L276 283.426M304 267.426L332 251.426M304 267.426L332 283.426M276 283.426L248 299.426M276 283.426L304 299.426M304 235.426L332 219.426M304 235.426L332 251.426M304 203.426L276 187.426M304 203.426L332 187.426M304 203.426L332 219.426M276 187.426L304 171.426M332 187.426L304 171.426M332 187.426L360 203.426M332 187.426L360 171.426M304 171.426L332 155.426L360 171.426M332 219.426L360 203.426M332 219.426L360 235.426M360 203.426L388 187.426M360 203.426L388 219.426M360 171.426L388 187.426M388 187.426L416 203.426M248 299.426L220 315.426M248 299.426L276 315.426M220 315.426L248 331.426M332 251.426L360 235.426M332 251.426L360 267.426M360 235.426L388 219.426M360 235.426L388 251.426M388 219.426L416 203.426M388 219.426L416 235.426M416 203.426L444 219.426M332 283.426L304 299.426M332 283.426L360 267.426M332 283.426L360 299.426M304 299.426L276 315.426M304 299.426L332 315.426M276 315.426L248 331.426M276 315.426L304 331.426M248 331.426L276 347.426L304 331.426M360 267.426L388 251.426M360 267.426L388 283.426M388 251.426L416 235.426M388 251.426L416 267.426M416 235.426L444 219.426M416 235.426L444 251.426M444 219.426L472 235.426L444 251.426M360 299.426L332 315.426M360 299.426L388 283.426M332 315.426L304 331.426M388 283.426L416 267.426M416 267.426L444 251.426" stroke="url(#paint0_linear_989_226107)" stroke-width="0.4" stroke-linejoin="round"/>
<path d="M325 120L129 232L276 316L472 204L325 120Z" fill="url(#paint1_linear_989_226107)" fill-opacity="0.2"/>
<path d="M325 88L129 200L276 284L472 172L325 88Z" fill="url(#paint2_linear_989_226107)" fill-opacity="0.5"/>
<path d="M325 56L129 168L276 252L472 140L325 56Z" fill="url(#paint3_linear_989_226107)" fill-opacity="0.9"/>
<g opacity="0.46" filter="url(#filter1_f_989_226107)">
<path d="M283.253 222.5C283.07 222.606 282.948 222.739 282.916 222.871C282.883 223.002 282.942 223.12 283.08 223.2C283.218 223.279 283.423 223.314 283.651 223.295C283.878 223.276 284.109 223.206 284.293 223.1L293.992 217.5C294.176 217.394 294.297 217.26 294.33 217.129C294.362 216.998 294.303 216.879 294.165 216.8C294.028 216.72 293.822 216.686 293.595 216.705C293.368 216.724 293.137 216.794 292.953 216.9L283.253 222.5Z" fill="#E6E6E6"/>
<path d="M280.311 225.6C280.694 225.379 280.694 225.021 280.311 224.8C279.928 224.579 279.308 224.579 278.925 224.8C278.543 225.021 278.543 225.379 278.925 225.6C279.308 225.821 279.928 225.821 280.311 225.6Z" fill="#E32212"/>
<path d="M305.425 209.7C305.241 209.806 305.12 209.939 305.088 210.071C305.055 210.202 305.114 210.32 305.252 210.4C305.39 210.479 305.595 210.514 305.822 210.495C306.05 210.476 306.281 210.406 306.464 210.3L316.164 204.7C316.348 204.594 316.469 204.46 316.502 204.329C316.534 204.198 316.475 204.079 316.337 204C316.199 203.92 315.994 203.886 315.767 203.905C315.54 203.924 315.309 203.994 315.125 204.1L305.425 209.7Z" fill="#E6E6E6"/>
<path d="M324.651 200C325.033 199.779 325.033 199.421 324.651 199.2C324.268 198.979 323.648 198.979 323.265 199.2C322.882 199.421 322.882 199.779 323.265 200C323.648 200.221 324.268 200.221 324.651 200Z" fill="#E32212"/>
<path d="M327.595 196.9C327.411 197.006 327.29 197.139 327.257 197.27C327.225 197.402 327.284 197.52 327.422 197.6C327.56 197.679 327.765 197.713 327.992 197.695C328.22 197.676 328.451 197.606 328.634 197.5L338.334 191.9C338.518 191.793 338.639 191.66 338.672 191.529C338.704 191.398 338.645 191.279 338.507 191.2C338.369 191.12 338.164 191.086 337.937 191.105C337.709 191.123 337.478 191.193 337.295 191.3L327.595 196.9Z" fill="#E6E6E6"/>
<path d="M302.481 212.8C302.863 212.579 302.863 212.221 302.481 212C302.098 211.779 301.478 211.779 301.095 212C300.713 212.221 300.713 212.579 301.095 212.8C301.478 213.021 302.098 213.021 302.481 212.8Z" fill="#E32212"/>
<path d="M255.713 209.3C251.21 211.7 251.556 215.7 251.556 219.7L263.94 226.85L337.466 184.4L316.768 172.45C305.25 175 314.863 183.15 305.683 188.45C299.881 191.8 284.725 186.85 277.71 190.9C270.695 194.95 278.576 202.7 273.38 205.7C270.001 207.65 260.216 206.9 255.713 209.3Z" fill="url(#paint4_linear_989_226107)"/>
<path d="M251.313 219.7C251.313 219.778 251.423 219.841 251.558 219.841C251.693 219.841 251.803 219.778 251.803 219.7L251.313 219.7ZM316.858 172.582L317.087 172.531L316.911 172.267L316.682 172.318L316.858 172.582ZM251.803 219.7C251.803 217.693 251.717 215.708 252.19 213.921C252.662 212.138 253.686 210.574 255.881 209.404L255.549 209.196C253.241 210.426 252.186 212.061 251.706 213.878C251.226 215.692 251.313 217.706 251.313 219.7L251.803 219.7ZM255.881 209.404C256.971 208.823 258.389 208.428 259.975 208.134C261.561 207.839 263.297 207.649 265.014 207.47C266.723 207.293 268.419 207.128 269.897 206.884C271.372 206.64 272.666 206.313 273.555 205.8L273.209 205.6C272.409 206.062 271.212 206.372 269.762 206.612C268.314 206.851 266.648 207.013 264.927 207.192C263.212 207.37 261.446 207.564 259.825 207.864C258.204 208.165 256.711 208.577 255.549 209.196L255.881 209.404ZM273.555 205.8C274.917 205.013 275.406 203.924 275.509 202.698C275.611 201.474 275.33 200.083 275.109 198.681C274.664 195.852 274.47 192.971 277.885 191L277.539 190.8C273.939 192.878 274.179 195.898 274.621 198.706C274.844 200.122 275.12 201.485 275.02 202.684C274.919 203.882 274.445 204.886 273.209 205.6L273.555 205.8ZM277.885 191C279.586 190.018 281.788 189.576 284.253 189.42C286.722 189.264 289.431 189.397 292.129 189.553C294.815 189.709 297.496 189.888 299.865 189.817C302.237 189.746 304.345 189.423 305.858 188.55L305.512 188.35C304.124 189.151 302.161 189.465 299.84 189.535C297.517 189.605 294.882 189.428 292.178 189.271C289.484 189.115 286.727 188.979 284.2 189.139C281.668 189.299 279.345 189.757 277.539 190.8L277.885 191ZM305.858 188.55C310.529 185.853 310.412 182.427 310.595 179.423C310.688 177.912 310.853 176.513 311.696 175.334C312.532 174.166 314.039 173.206 316.858 172.582L316.682 172.318C313.742 172.969 312.132 173.984 311.243 175.226C310.362 176.458 310.198 177.906 310.106 179.413C309.921 182.447 310.021 185.746 305.512 188.35L305.858 188.55Z" fill="#E32212"/>
<path d="M313.826 173.45C314.161 173.643 314.161 173.956 313.826 174.15C313.491 174.343 312.948 174.343 312.613 174.15C312.279 173.956 312.279 173.643 312.613 173.45C312.948 173.256 313.491 173.256 313.826 173.45Z" fill="#960300" stroke="#E32212" stroke-width="0.200001"/>
<path d="M278.492 190.45C278.827 190.643 278.827 190.956 278.492 191.15C278.157 191.343 277.614 191.343 277.279 191.15C276.945 190.956 276.945 190.643 277.279 190.45C277.614 190.256 278.157 190.256 278.492 190.45Z" fill="#960300" stroke="#E32212" stroke-width="0.200001"/>
<path d="M255.8 209.15C256.135 209.343 256.135 209.656 255.8 209.85C255.466 210.043 254.923 210.043 254.588 209.85C254.253 209.656 254.253 209.343 254.588 209.15C254.923 208.956 255.466 208.956 255.8 209.15Z" fill="#960300" stroke="#E32212" stroke-width="0.200001"/>
</g>
<path d="M282.253 221.501C282.07 221.607 281.948 221.74 281.916 221.872C281.883 222.003 281.942 222.121 282.08 222.201C282.218 222.28 282.423 222.315 282.651 222.296C282.878 222.277 283.109 222.207 283.293 222.101L292.992 216.501C293.176 216.395 293.297 216.261 293.33 216.13C293.362 215.999 293.303 215.88 293.165 215.801C293.028 215.721 292.822 215.687 292.595 215.706C292.368 215.725 292.137 215.795 291.953 215.901L282.253 221.501Z" fill="#E6E6E6"/>
<path d="M279.311 224.601C279.694 224.38 279.694 224.022 279.311 223.801C278.928 223.58 278.308 223.58 277.925 223.801C277.543 224.022 277.543 224.38 277.925 224.601C278.308 224.822 278.928 224.822 279.311 224.601Z" fill="#E32212"/>
<path d="M304.423 208.701C304.24 208.807 304.118 208.941 304.086 209.072C304.053 209.203 304.112 209.322 304.25 209.401C304.388 209.481 304.593 209.515 304.82 209.496C305.048 209.477 305.279 209.407 305.463 209.301L315.162 203.701C315.346 203.595 315.467 203.462 315.5 203.33C315.532 203.199 315.473 203.081 315.335 203.001C315.197 202.921 314.992 202.887 314.765 202.906C314.538 202.925 314.307 202.995 314.123 203.101L304.423 208.701Z" fill="#E6E6E6"/>
<path d="M323.651 199.001C324.033 198.78 324.033 198.422 323.651 198.201C323.268 197.98 322.648 197.98 322.265 198.201C321.882 198.422 321.882 198.78 322.265 199.001C322.648 199.222 323.268 199.222 323.651 199.001Z" fill="#E32212"/>
<path d="M326.595 195.901C326.411 196.007 326.29 196.14 326.257 196.271C326.225 196.403 326.284 196.521 326.422 196.601C326.56 196.68 326.765 196.715 326.992 196.696C327.22 196.677 327.451 196.607 327.634 196.501L337.334 190.901C337.518 190.795 337.639 190.661 337.672 190.53C337.704 190.399 337.645 190.28 337.507 190.201C337.369 190.121 337.164 190.087 336.937 190.106C336.709 190.125 336.478 190.195 336.295 190.301L326.595 195.901Z" fill="#E6E6E6"/>
<path d="M301.481 211.801C301.863 211.58 301.863 211.222 301.481 211.001C301.098 210.78 300.478 210.78 300.095 211.001C299.713 211.222 299.713 211.58 300.095 211.801C300.478 212.022 301.098 212.022 301.481 211.801Z" fill="#E32212"/>
<path opacity="0.5" d="M254.713 208.301C250.21 210.701 250.556 214.701 250.556 218.701L262.94 225.851L336.466 183.401L315.768 171.451C304.25 174.001 313.863 182.151 304.683 187.451C298.881 190.801 283.725 185.851 276.71 189.901C269.695 193.951 277.576 201.701 272.38 204.701C269.001 206.652 259.216 205.901 254.713 208.301Z" fill="url(#paint5_linear_989_226107)"/>
<path d="M250.25 218.701C250.25 218.799 250.387 218.878 250.556 218.878C250.725 218.878 250.862 218.799 250.862 218.701L250.25 218.701ZM315.878 171.616L316.164 171.553L315.944 171.222L315.659 171.286L315.878 171.616ZM250.862 218.701C250.862 216.693 250.777 214.711 251.248 212.928C251.719 211.149 252.739 209.593 254.921 208.431L254.505 208.171C252.183 209.409 251.125 211.053 250.643 212.874C250.162 214.691 250.25 216.709 250.25 218.701L250.862 218.701ZM254.921 208.431C256.001 207.855 257.41 207.462 258.992 207.169C260.573 206.875 262.306 206.685 264.022 206.507C265.731 206.329 267.43 206.163 268.912 205.919C270.39 205.675 271.696 205.346 272.597 204.826L272.163 204.576C271.374 205.032 270.19 205.34 268.743 205.579C267.299 205.817 265.637 205.98 263.914 206.159C262.199 206.337 260.43 206.53 258.804 206.832C257.179 207.134 255.677 207.547 254.505 208.171L254.921 208.431ZM272.597 204.826C273.974 204.03 274.465 202.931 274.568 201.701C274.671 200.473 274.389 199.08 274.168 197.679C273.722 194.847 273.534 191.984 276.927 190.026L276.494 189.776C272.871 191.867 273.116 194.905 273.558 197.711C273.781 199.129 274.057 200.488 273.956 201.684C273.856 202.878 273.384 203.872 272.163 204.576L272.597 204.826ZM276.927 190.026C278.614 189.051 280.801 188.612 283.258 188.456C285.719 188.301 288.422 188.433 291.121 188.589C293.805 188.745 296.491 188.925 298.867 188.854C301.244 188.783 303.371 188.459 304.899 187.576L304.466 187.326C303.094 188.118 301.15 188.432 298.835 188.501C296.518 188.57 293.889 188.394 291.182 188.238C288.489 188.081 285.725 187.945 283.191 188.105C280.651 188.265 278.313 188.725 276.494 189.776L276.927 190.026ZM304.899 187.576C309.59 184.868 309.472 181.426 309.655 178.426C309.747 176.914 309.913 175.521 310.751 174.349C311.58 173.189 313.074 172.236 315.878 171.616L315.659 171.286C312.703 171.94 311.08 172.962 310.185 174.214C309.299 175.453 309.135 176.907 309.043 178.413C308.858 181.451 308.956 184.734 304.466 187.326L304.899 187.576Z" fill="#E32212"/>
<path d="M313.127 172.275C313.629 172.565 313.629 173.035 313.127 173.325C312.624 173.615 311.81 173.615 311.308 173.325C310.806 173.035 310.806 172.565 311.308 172.275C311.81 171.985 312.624 171.985 313.127 172.275Z" fill="#960300" stroke="#E32212" stroke-width="0.30002"/>
<path d="M277.795 189.275C278.297 189.565 278.297 190.035 277.795 190.325C277.292 190.615 276.478 190.615 275.976 190.325C275.474 190.035 275.474 189.565 275.976 189.275C276.478 188.985 277.292 188.985 277.795 189.275Z" fill="#960300" stroke="#E32212" stroke-width="0.30002"/>
<path d="M255.103 207.976C255.605 208.266 255.605 208.736 255.103 209.026C254.601 209.316 253.787 209.316 253.284 209.026C252.782 208.736 252.782 208.266 253.284 207.976C253.787 207.686 254.601 207.686 255.103 207.976Z" fill="#960300" stroke="#E32212" stroke-width="0.30002"/>
<path d="M325 71.426L255 111.426L265 117.14L335 77.1403L325 71.426Z" fill="url(#paint6_linear_989_226107)"/>
<path d="M325 71.426L255 111.426L265 117.14L335 77.1403L325 71.426Z" fill="#2B2B2B" fill-opacity="0.5"/>
<path d="M326.5 116.283L293 135.426L303 141.14L336.5 121.997L326.5 116.283Z" stroke="url(#paint7_linear_989_226107)" stroke-width="0.4"/>
<path d="M363.5 95.426L330 114.569L340 120.283L373.5 101.14L363.5 95.426Z" stroke="url(#paint8_linear_989_226107)" stroke-width="0.4"/>
<path d="M338 79.426L268 119.426L272.5 121.997L342.5 81.9975L338 79.426Z" fill="url(#paint9_linear_989_226107)"/>
<path d="M338 79.426L268 119.426L272.5 121.997L342.5 81.9975L338 79.426Z" fill="#2B2B2B" fill-opacity="0.7"/>
<path d="M347 84.426L277 124.426L281.5 126.997L351.5 86.9975L347 84.426Z" fill="url(#paint10_linear_989_226107)"/>
<path d="M347 84.426L277 124.426L281.5 126.997L351.5 86.9975L347 84.426Z" fill="#2B2B2B" fill-opacity="0.7"/>
<path d="M355 89.426L285 129.426L289.5 131.997L359.5 91.9975L355 89.426Z" fill="url(#paint11_linear_989_226107)"/>
<path d="M355 89.426L285 129.426L289.5 131.997L359.5 91.9975L355 89.426Z" fill="#2B2B2B" fill-opacity="0.7"/>
<path d="M242 131L172 171L228 203L298 163L242 131Z" fill="url(#paint12_linear_989_226107)" fill-opacity="0.5"/>
<path d="M242 83L172 123L228 155L298 115L242 83Z" fill="url(#paint13_linear_989_226107)" fill-opacity="0.1"/>
<path d="M242 83L172 123L228 155L298 115L242 83Z" fill="url(#paint14_linear_989_226107)" fill-opacity="0.8"/>
<path d="M244.5 103L241 105L243.8 106.6L247.3 104.6L244.5 103Z" fill="#E32212" fill-opacity="0.75"/>
<path d="M250.5 107L247 109L249.8 110.6L253.3 108.6L250.5 107Z" fill="#7A7A7A" fill-opacity="0.75"/>
<path d="M256.5 111L253 113L255.8 114.6L259.3 112.6L256.5 111Z" fill="#D0D0D0"/>
<path d="M257.133 96.7185L246.875 102.5L248.242 103.281L258.5 97.4999L257.133 96.7185Z" fill="#E32212" fill-opacity="0.75"/>
<path d="M261.5 101L252.5 106.286L254.256 107.289L263.256 102.003L261.5 101Z" fill="#7A7A7A" fill-opacity="0.75"/>
<path d="M268.5 104.143L258.5 110.286L260 111.143L270 105L268.5 104.143Z" fill="#D0D0D0"/>
<path d="M238.522 111.893C251.149 116.102 255.475 125.423 248.185 132.712C240.895 140.002 224.749 142.499 212.123 138.291C199.496 134.082 195.17 124.761 202.46 117.472C209.75 110.182 225.895 107.684 238.522 111.893ZM218.526 131.888C225.027 134.055 233.341 132.769 237.094 129.016C240.848 125.262 238.62 120.463 232.119 118.296C225.617 116.129 217.304 117.415 213.551 121.168C209.797 124.922 212.024 129.721 218.526 131.888Z" fill="#E3E3E3" fill-opacity="0.4"/>
<path d="M238.522 109.253C233.239 107.492 227.062 106.842 221.043 107.413C215.023 107.984 209.531 109.741 205.502 112.385L215.117 117.269C217.192 115.907 220.019 115.002 223.119 114.709C226.218 114.415 229.399 114.749 232.119 115.656L238.522 109.253Z" fill="#E32212" fill-opacity="0.75"/>
<path d="M238.522 109.253C243.291 110.843 247.079 113.253 249.357 116.147C251.635 119.041 252.288 122.274 251.226 125.393C250.163 128.512 247.438 131.361 243.431 133.542C239.425 135.722 234.337 137.125 228.881 137.554L227.155 130.228C229.964 130.007 232.584 129.285 234.647 128.162C236.709 127.039 238.113 125.572 238.66 123.966C239.207 122.36 238.87 120.696 237.698 119.206C236.525 117.716 234.574 116.474 232.119 115.656L238.522 109.253Z" fill="#7A7A7A" fill-opacity="0.75"/>
<path d="M230.447 137.403C225.045 138.02 219.445 137.646 214.429 136.335C209.413 135.023 205.234 132.839 202.475 130.088C199.716 127.337 198.517 124.156 199.044 120.992C199.572 117.828 201.8 114.838 205.416 112.441L215.073 117.298C213.211 118.532 212.063 120.071 211.792 121.7C211.52 123.33 212.138 124.967 213.558 126.384C214.979 127.8 217.131 128.925 219.713 129.6C222.296 130.275 225.18 130.468 227.961 130.15L230.447 137.403Z" fill="#E3E3E3"/>
<path opacity="0.1" d="M238.522 158.893C251.149 163.102 255.475 172.423 248.185 179.712C240.895 187.002 224.749 189.499 212.123 185.291C199.496 181.082 195.17 171.761 202.46 164.472C209.75 157.182 225.895 154.684 238.522 158.893ZM218.526 178.888C225.027 181.055 233.341 179.769 237.094 176.016C240.848 172.262 238.62 167.463 232.119 165.296C225.617 163.129 217.304 164.415 213.551 168.168C209.797 171.922 212.024 176.721 218.526 178.888Z" fill="#E3E3E3" fill-opacity="0.4"/>
<path d="M419.699 112.226L434.399 103.826V138.826L419.699 147.226V112.226Z" fill="url(#paint15_linear_989_226107)"/>
<path opacity="0.75" d="M419.7 112.226L405 103.826V138.826L419.7 147.226V112.226Z" fill="url(#paint16_linear_989_226107)"/>
<path opacity="0.7" d="M419.7 112.226L405 103.826L419.7 95.426L434.4 103.826L419.7 112.226Z" fill="url(#paint17_linear_989_226107)"/>
<path d="M399.9 108L414.6 99.5999V150L399.9 158.4V108Z" fill="url(#paint18_linear_989_226107)"/>
<path opacity="0.75" d="M399.901 108L385.201 99.5999V150L399.901 158.4V108Z" fill="url(#paint19_linear_989_226107)"/>
<path opacity="0.7" d="M399.901 108L385.201 99.6L399.901 91.2L414.601 99.6L399.901 108Z" fill="url(#paint20_linear_989_226107)"/>
<path d="M380.301 134.6L395.001 126.2V161.2L380.301 169.6V134.6Z" fill="url(#paint21_linear_989_226107)"/>
<path opacity="0.75" d="M380.302 134.6L365.602 126.2V161.2L380.302 169.6V134.6Z" fill="url(#paint22_linear_989_226107)"/>
<path opacity="0.7" d="M380.302 134.6L365.602 126.2L380.302 117.8L395.002 126.2L380.302 134.6Z" fill="url(#paint23_linear_989_226107)"/>
<path d="M360.699 96.7999L375.399 88.3999V172.4L360.699 180.8V96.7999Z" fill="url(#paint24_linear_989_226107)"/>
<path opacity="0.75" d="M360.7 96.7999L346 88.3999V172.4L360.7 180.8V96.7999Z" fill="url(#paint25_linear_989_226107)"/>
<path opacity="0.7" d="M360.7 96.8L346 88.4L360.7 80L375.4 88.4L360.7 96.8Z" fill="url(#paint26_linear_989_226107)"/>
</g>
<defs>
<filter id="filter0_f_989_226107" x="-20" y="-120" width="640" height="640" filterUnits="userSpaceOnUse" color-interpolation-filters="sRGB">
<feFlood flood-opacity="0" result="BackgroundImageFix"/>
<feBlend mode="normal" in="SourceGraphic" in2="BackgroundImageFix" result="shape"/>
<feGaussianBlur stdDeviation="100" result="effect1_foregroundBlur_989_226107"/>
</filter>
<filter id="filter1_f_989_226107" x="249.307" y="170.267" width="91.373" height="58.583" filterUnits="userSpaceOnUse" color-interpolation-filters="sRGB">
<feFlood flood-opacity="0" result="BackgroundImageFix"/>
<feBlend mode="normal" in="SourceGraphic" in2="BackgroundImageFix" result="shape"/>
<feGaussianBlur stdDeviation="1" result="effect1_foregroundBlur_989_226107"/>
</filter>
<linearGradient id="paint0_linear_989_226107" x1="296.5" y1="171.926" x2="328.5" y2="328.926" gradientUnits="userSpaceOnUse">
<stop offset="0.442708" stop-color="#E3E3E3" stop-opacity="0"/>
<stop offset="0.807292" stop-color="#E3E3E3" stop-opacity="0.5"/>
<stop offset="1" stop-color="#E3E3E3" stop-opacity="0.25"/>
</linearGradient>
<linearGradient id="paint1_linear_989_226107" x1="129" y1="231.957" x2="471.947" y2="203.11" gradientUnits="userSpaceOnUse">
<stop stop-color="#616161"/>
<stop offset="1" stop-color="#474747"/>
</linearGradient>
<linearGradient id="paint2_linear_989_226107" x1="129" y1="199.957" x2="471.947" y2="171.11" gradientUnits="userSpaceOnUse">
<stop stop-color="#616161"/>
<stop offset="1" stop-color="#474747"/>
</linearGradient>
<linearGradient id="paint3_linear_989_226107" x1="284.24" y1="247.449" x2="344.986" y2="64.9971" gradientUnits="userSpaceOnUse">
<stop stop-color="#616161"/>
<stop offset="1" stop-color="#2B2B2B"/>
</linearGradient>
<linearGradient id="paint4_linear_989_226107" x1="276.454" y1="191.625" x2="288.579" y2="212.625" gradientUnits="userSpaceOnUse">
<stop stop-color="#2B2B2B"/>
<stop offset="1" stop-color="#2B2B2B" stop-opacity="0"/>
</linearGradient>
<linearGradient id="paint5_linear_989_226107" x1="275.454" y1="190.626" x2="287.579" y2="211.626" gradientUnits="userSpaceOnUse">
<stop stop-color="#2B2B2B"/>
<stop offset="1" stop-color="#2B2B2B" stop-opacity="0"/>
</linearGradient>
<linearGradient id="paint6_linear_989_226107" x1="266" y1="115.926" x2="319" y2="85.926" gradientUnits="userSpaceOnUse">
<stop stop-color="#E32212"/>
<stop offset="1" stop-color="#2B2B2B"/>
</linearGradient>
<linearGradient id="paint7_linear_989_226107" x1="314.75" y1="116.283" x2="314.75" y2="141.14" gradientUnits="userSpaceOnUse">
<stop stop-color="#E32212" stop-opacity="0.8"/>
<stop offset="1" stop-color="#E32212" stop-opacity="0.3"/>
</linearGradient>
<linearGradient id="paint8_linear_989_226107" x1="351.75" y1="95.426" x2="351.75" y2="120.283" gradientUnits="userSpaceOnUse">
<stop stop-color="#E32212" stop-opacity="0.3"/>
<stop offset="1" stop-color="#E32212" stop-opacity="0.8"/>
</linearGradient>
<linearGradient id="paint9_linear_989_226107" x1="279" y1="123.926" x2="332" y2="93.926" gradientUnits="userSpaceOnUse">
<stop stop-color="#2B2B2B"/>
<stop offset="0.802083" stop-color="#E32212"/>
</linearGradient>
<linearGradient id="paint10_linear_989_226107" x1="288" y1="128.926" x2="341" y2="98.926" gradientUnits="userSpaceOnUse">
<stop stop-color="#2B2B2B"/>
<stop offset="0.802083" stop-color="#E32212"/>
</linearGradient>
<linearGradient id="paint11_linear_989_226107" x1="296" y1="133.926" x2="349" y2="103.926" gradientUnits="userSpaceOnUse">
<stop stop-color="#2B2B2B"/>
<stop offset="0.802083" stop-color="#E32212"/>
</linearGradient>
<linearGradient id="paint12_linear_989_226107" x1="223.5" y1="198.595" x2="315.536" y2="165.822" gradientUnits="userSpaceOnUse">
<stop offset="0.203125" stop-color="#2B2B2B"/>
<stop offset="1" stop-color="#616161"/>
</linearGradient>
<linearGradient id="paint13_linear_989_226107" x1="223.5" y1="152.357" x2="300.194" y2="106.841" gradientUnits="userSpaceOnUse">
<stop offset="0.203125" stop-color="#2B2B2B"/>
<stop offset="1" stop-color="#616161"/>
</linearGradient>
<linearGradient id="paint14_linear_989_226107" x1="223.5" y1="152.357" x2="300.194" y2="106.841" gradientUnits="userSpaceOnUse">
<stop offset="0.203125" stop-color="#E3E3E3"/>
<stop offset="1" stop-color="#616161"/>
</linearGradient>
<linearGradient id="paint15_linear_989_226107" x1="426.799" y1="145.031" x2="426.799" y2="105.912" gradientUnits="userSpaceOnUse">
<stop stop-color="#E32212"/>
<stop offset="1" stop-color="#E32212" stop-opacity="0.5"/>
</linearGradient>
<linearGradient id="paint16_linear_989_226107" x1="412.35" y1="103.826" x2="412.35" y2="147.226" gradientUnits="userSpaceOnUse">
<stop stop-color="#E32212"/>
<stop offset="1" stop-color="#E32212" stop-opacity="0.5"/>
</linearGradient>
<linearGradient id="paint17_linear_989_226107" x1="419.7" y1="95.426" x2="419.7" y2="112.226" gradientUnits="userSpaceOnUse">
<stop stop-color="#BD0F06" stop-opacity="0.5"/>
<stop offset="1" stop-color="#E32212" stop-opacity="0.75"/>
</linearGradient>
<linearGradient id="paint18_linear_989_226107" x1="407" y1="155.426" x2="407" y2="102.426" gradientUnits="userSpaceOnUse">
<stop stop-color="#E32212"/>
<stop offset="1" stop-color="#E32212" stop-opacity="0.5"/>
</linearGradient>
<linearGradient id="paint19_linear_989_226107" x1="392.551" y1="99.5999" x2="392.551" y2="158.4" gradientUnits="userSpaceOnUse">
<stop stop-color="#E32212"/>
<stop offset="1" stop-color="#E32212" stop-opacity="0.5"/>
</linearGradient>
<linearGradient id="paint20_linear_989_226107" x1="399.901" y1="91.2" x2="399.901" y2="108" gradientUnits="userSpaceOnUse">
<stop stop-color="#BD0F06" stop-opacity="0.5"/>
<stop offset="1" stop-color="#E32212" stop-opacity="0.75"/>
</linearGradient>
<linearGradient id="paint21_linear_989_226107" x1="387.4" y1="167.405" x2="387.4" y2="128.286" gradientUnits="userSpaceOnUse">
<stop stop-color="#E32212"/>
<stop offset="1" stop-color="#E32212" stop-opacity="0.5"/>
</linearGradient>
<linearGradient id="paint22_linear_989_226107" x1="372.952" y1="126.2" x2="372.952" y2="169.6" gradientUnits="userSpaceOnUse">
<stop stop-color="#E32212"/>
<stop offset="1" stop-color="#E32212" stop-opacity="0.5"/>
</linearGradient>
<linearGradient id="paint23_linear_989_226107" x1="380.302" y1="117.8" x2="380.302" y2="134.6" gradientUnits="userSpaceOnUse">
<stop stop-color="#BD0F06" stop-opacity="0.5"/>
<stop offset="1" stop-color="#E32212" stop-opacity="0.75"/>
</linearGradient>
<linearGradient id="paint24_linear_989_226107" x1="367.799" y1="176.127" x2="367.799" y2="92.8408" gradientUnits="userSpaceOnUse">
<stop stop-color="#E32212"/>
<stop offset="1" stop-color="#E32212" stop-opacity="0.5"/>
</linearGradient>
<linearGradient id="paint25_linear_989_226107" x1="353.35" y1="88.3999" x2="353.35" y2="180.8" gradientUnits="userSpaceOnUse">
<stop stop-color="#E32212"/>
<stop offset="1" stop-color="#E32212" stop-opacity="0.5"/>
</linearGradient>
<linearGradient id="paint26_linear_989_226107" x1="360.7" y1="80" x2="360.7" y2="96.8" gradientUnits="userSpaceOnUse">
<stop stop-color="#BD0F06" stop-opacity="0.5"/>
<stop offset="1" stop-color="#E32212" stop-opacity="0.75"/>
</linearGradient>
<clipPath id="clip0_989_226107">
<rect width="600" height="400" fill="white"/>
</clipPath>
</defs>
</svg>
